<?xml version="1.0" standalone="no"?>
<!DOCTYPE svg PUBLIC "-//W3C//DTD SVG 20010904//EN"
 "http://www.w3.org/TR/2001/REC-SVG-20010904/DTD/svg10.dtd">
<svg version="1.0" xmlns="http://www.w3.org/2000/svg"
 width="610.000000pt" height="610.000000pt" viewBox="0 0 610.000000 610.000000"
 preserveAspectRatio="xMidYMid meet">

<g transform="translate(0.000000,610.000000) scale(0.100000,-0.100000)"
fill="#000000" stroke="none">
<path d="M2780 4340 c-22 -22 -25 -37 -11 -59 15 -24 -6 -51 -39 -51 -15 0
-36 -3 -45 -6 -23 -9 -37 -51 -25 -74 16 -29 -31 -37 -89 -16 -73 26 -160 37
-203 26 -43 -12 -55 -38 -38 -81 17 -40 -8 -71 -51 -62 -40 8 -76 -4 -89 -28
-9 -16 -7 -29 9 -60 24 -45 26 -67 9 -104 -10 -21 -18 -25 -58 -25 -73 0 -89
-34 -49 -109 18 -35 21 -63 26 -273 l6 -233 -28 -28 c-37 -36 -124 -61 -184
-53 -128 19 -157 19 -198 -3 -48 -24 -77 -58 -94 -108 -15 -46 -7 -98 25 -169
34 -74 33 -111 -4 -162 -17 -23 -30 -45 -30 -48 0 -11 80 6 104 21 25 17 46
55 46 84 0 11 -18 41 -41 67 -56 68 -79 116 -79 166 0 82 53 133 151 145 43 5
53 3 74 -17 16 -15 25 -34 25 -54 0 -53 -71 -139 -100 -121 -15 9 -12 28 10
76 29 64 25 78 -10 44 -34 -33 -54 -91 -44 -130 4 -15 27 -50 51 -78 59 -67
87 -129 79 -172 -14 -72 -119 -114 -230 -91 -36 7 -38 6 -27 -8 7 -9 32 -21
54 -27 34 -9 53 -8 107 7 38 11 98 19 146 19 64 0 78 2 65 12 -34 25 -22 431
16 529 15 39 97 -12 105 -64 3 -22 6 -20 35 22 44 62 75 76 111 49 38 -28 52
-60 52 -123 -1 -103 -48 -168 -132 -180 l-40 -5 52 -79 c35 -53 60 -82 80 -89
17 -6 30 -16 30 -22 0 -22 -46 -55 -77 -55 -40 0 -74 39 -122 140 l-35 74 -9
-39 c-4 -22 -14 -70 -21 -107 l-13 -68 41 0 c23 0 58 -5 78 -10 20 -6 79 -14
129 -18 113 -9 119 -15 99 -99 -7 -32 -15 -116 -17 -186 -6 -170 1 -181 148
-221 31 -9 73 -29 93 -46 35 -27 100 -49 112 -37 3 3 -12 8 -33 12 l-39 6 4
66 c5 66 4 66 -20 60 -14 -4 -56 -9 -95 -13 -163 -15 -202 48 -107 172 l35 45
-41 16 c-22 9 -40 20 -40 25 0 19 61 127 98 174 22 28 56 58 75 67 69 33 144
14 167 -43 7 -18 20 -30 31 -30 14 0 17 -6 14 -32 -2 -18 -6 -79 -9 -136 l-5
-102 29 15 c29 15 30 15 48 -22 l20 -37 4 42 c2 29 0 42 -9 42 -28 0 -8 86 21
94 13 3 29 21 39 44 25 56 81 117 130 141 83 40 208 21 264 -40 79 -86 68
-252 -24 -359 -58 -68 -132 -87 -209 -55 -58 24 -74 86 -48 181 5 20 3 21 -27
15 -40 -8 -53 -41 -44 -120 15 -148 98 -231 230 -231 71 0 126 22 184 75 23
21 43 36 45 34 8 -9 47 -91 44 -93 -2 -1 -22 -16 -44 -34 -76 -59 -140 -82
-226 -82 -100 0 -170 25 -225 82 -49 51 -79 109 -94 180 -6 29 -12 54 -14 56
-6 7 -94 -40 -99 -54 -3 -9 -6 -47 -6 -84 l0 -69 35 15 c44 18 70 7 151 -67
83 -75 129 -93 244 -93 52 0 124 3 160 8 58 7 71 5 122 -18 73 -32 156 -46
283 -46 55 0 143 -5 195 -12 69 -8 120 -8 188 -1 61 7 123 7 181 1 60 -6 101
-6 128 1 94 26 153 97 153 187 0 68 -25 98 -116 140 -46 21 -75 40 -79 53 -4
12 9 66 30 133 33 101 37 122 33 193 -7 134 -63 228 -168 284 -75 40 -176 51
-255 27 -157 -47 -168 -49 -214 -37 -45 13 -91 50 -91 73 1 14 42 45 98 75
l33 17 34 -39 c33 -39 34 -40 62 -25 33 19 62 86 62 148 1 25 -10 72 -25 109
-25 61 -26 70 -15 117 7 28 15 146 17 261 5 186 8 216 26 258 17 37 20 54 12
75 -8 24 -15 27 -60 30 -43 2 -53 7 -63 28 -16 36 -14 62 10 101 18 28 20 39
11 58 -13 28 -49 40 -91 32 -39 -8 -71 25 -53 53 18 30 14 67 -9 83 -30 22
-138 12 -216 -19 -53 -22 -70 -24 -89 -15 -21 9 -23 14 -14 30 5 11 10 24 10
30 0 21 -40 51 -67 51 -14 0 -34 7 -44 16 -14 13 -15 20 -5 45 10 28 8 33 -13
50 -13 10 -30 19 -37 19 -28 0 -137 -42 -173 -66 -45 -31 -81 -30 -130 1 -40
25 -148 65 -176 65 -8 0 -24 -9 -35 -20z m113 -60 c60 -23 109 -66 138 -122
19 -37 39 -43 39 -12 0 30 90 113 146 134 30 11 57 20 59 20 2 0 -3 -17 -12
-37 -14 -32 -17 -99 -20 -433 -3 -233 -9 -409 -15 -429 -6 -18 -30 -53 -55
-78 -24 -25 -58 -70 -75 -99 -16 -30 -35 -54 -42 -54 -6 0 -26 25 -44 55 -18
30 -53 75 -77 99 -26 27 -48 60 -54 83 -5 21 -11 216 -13 433 -4 346 -7 399
-22 428 -9 17 -14 32 -12 32 3 0 29 -9 59 -20z m-381 -190 c105 -32 169 -116
188 -247 5 -37 10 -153 10 -258 0 -173 2 -193 20 -220 17 -25 20 -47 20 -139
0 -60 5 -150 12 -199 9 -74 16 -95 38 -120 30 -34 23 -35 135 29 42 24 61 28
120 28 59 0 78 -4 120 -28 100 -57 102 -58 124 -44 41 25 61 129 61 313 0 101
3 127 20 160 18 35 20 59 20 235 0 283 27 382 123 451 45 33 133 62 172 57
l25 -3 -30 -45 c-63 -93 -73 -149 -77 -420 -4 -269 -5 -281 -30 -306 -14 -14
-15 -18 -4 -22 27 -9 89 -73 102 -105 7 -17 14 -33 15 -35 1 -2 16 3 32 12 18
9 39 34 53 63 21 43 24 65 27 223 3 134 8 180 20 198 19 28 91 72 121 72 21 0
21 0 4 -32 -15 -28 -19 -69 -23 -263 -6 -212 -8 -234 -29 -283 l-24 -53 20
-22 c36 -38 53 -84 53 -139 0 -65 -11 -86 -30 -63 -26 31 -56 39 -180 45 -142
8 -208 -3 -90 -14 92 -9 170 -25 170 -35 0 -4 -14 -20 -31 -37 l-30 -29 -122
3 c-127 4 -198 -7 -229 -35 -22 -20 -23 -51 -3 -80 14 -20 13 -23 -25 -53 -40
-32 -41 -32 -61 -14 -27 24 -49 67 -50 96 0 13 -3 18 -5 12 -3 -7 -22 -7 -62
2 -71 14 -220 15 -292 0 -41 -8 -56 -16 -59 -30 -5 -27 25 -46 71 -46 34 0 38
3 38 25 0 25 0 25 95 25 94 0 95 0 95 -24 0 -14 4 -28 10 -31 13 -8 93 14 102
29 5 7 8 3 8 -10 0 -11 -11 -31 -25 -44 -21 -20 -25 -21 -31 -7 -5 15 -8 14
-24 -6 -17 -20 -19 -21 -25 -4 -5 12 -14 16 -26 12 -11 -4 -19 -2 -19 5 0 6
-8 9 -17 6 -10 -3 -37 -10 -60 -16 -26 -6 -43 -17 -43 -25 0 -8 -7 -15 -15
-15 -8 0 -15 9 -15 19 0 29 -17 34 -24 8 l-6 -22 -19 24 -19 24 -6 -21 c-4
-12 -12 -22 -17 -22 -5 0 -9 -17 -7 -37 3 -35 1 -38 -22 -38 -23 0 -26 5 -31
55 -4 30 -16 116 -28 190 -11 74 -21 142 -22 150 0 8 -5 4 -10 -9 -9 -23 -12
-24 -82 -17 -118 10 -117 9 -117 78 0 56 1 58 21 48 32 -18 99 -2 131 30 39
40 39 91 -1 131 -34 33 -69 37 -126 13 -27 -11 -41 -25 -52 -54 l-15 -38 -47
20 c-25 11 -50 24 -54 28 -22 20 68 147 114 162 11 4 10 8 -3 22 -24 24 -27
51 -31 321 -4 265 -13 312 -77 403 -16 23 -30 45 -30 47 0 11 62 4 122 -15z
m-295 -366 c19 -9 45 -31 59 -49 22 -30 24 -40 24 -156 1 -122 11 -237 25
-271 6 -16 0 -18 -63 -18 l-69 0 -7 31 c-3 17 -6 113 -6 213 0 157 -3 187 -20
224 -19 42 -19 42 1 42 12 0 37 -7 56 -16z m675 -495 c50 -27 58 -127 13 -169
-33 -31 -68 -21 -90 26 -22 48 -14 102 20 132 30 26 30 25 57 11z m383 -11
c51 -45 38 -159 -20 -174 -74 -18 -110 133 -42 181 28 20 31 19 62 -7z m-790
-144 c26 -24 27 -30 22 -81 -12 -111 -82 -443 -94 -443 -6 0 -19 10 -27 22
-30 42 -20 360 15 491 12 46 42 50 84 11z m1216 -370 c39 -12 67 -29 103 -65
l49 -49 38 35 c21 19 62 47 91 62 46 24 65 27 143 28 79 0 96 -3 141 -27 113
-59 169 -190 145 -336 -20 -127 -99 -244 -186 -278 -61 -23 -214 -17 -243 10
-32 28 -36 68 -13 115 12 22 21 42 21 45 0 2 -16 14 -35 26 l-35 21 22 42 c35
69 108 176 135 197 36 28 121 28 151 0 52 -48 35 -102 -77 -249 -39 -52 -71
-100 -71 -107 0 -24 58 -27 103 -5 108 52 171 250 115 361 -63 124 -239 129
-352 11 -17 -18 -36 -29 -45 -26 -14 4 -16 -10 -16 -103 0 -99 -2 -112 -31
-172 -66 -139 -128 -180 -273 -180 -89 0 -94 1 -122 29 -35 35 -37 72 -9 119
24 38 21 45 -20 62 -16 7 -30 18 -30 25 0 21 109 189 145 223 29 27 42 32 84
32 136 0 133 -109 -7 -278 -22 -26 -47 -59 -57 -74 -17 -27 -17 -28 10 -38 66
-25 142 29 194 140 36 76 37 187 3 242 -36 58 -84 82 -162 82 -73 0 -130 -25
-189 -85 l-31 -31 -35 22 c-19 12 -35 27 -35 33 0 17 86 95 130 117 81 41 165
49 251 24z"/>
<path d="M3399 3181 c-21 -22 -29 -39 -29 -66 0 -27 8 -44 29 -66 22 -21 39
-29 66 -29 51 0 95 44 95 95 0 27 -8 44 -29 66 -22 21 -39 29 -66 29 -27 0
-44 -8 -66 -29z"/>
<path d="M3341 2919 c-1 -9 -12 -28 -26 -43 -39 -42 -30 -51 15 -15 22 18 36
35 32 38 -5 3 -12 13 -15 21 -5 13 -6 13 -6 -1z"/>
<path d="M2893 2847 c-50 -12 -55 -22 -13 -23 17 -1 30 3 30 7 0 5 15 9 33 8
17 0 46 3 63 6 19 4 34 3 38 -4 5 -7 14 -7 31 1 18 8 32 8 48 1 13 -6 35 -9
50 -6 15 3 27 1 27 -4 0 -6 13 -10 30 -9 16 1 30 4 30 8 0 25 -278 37 -367 15z"/>
<path d="M2846 3164 c-9 -8 -16 -23 -16 -32 0 -23 28 -62 44 -62 19 0 46 34
46 58 0 23 -25 52 -45 52 -7 0 -21 -7 -29 -16z"/>
<path d="M3205 3160 c-15 -16 -17 -26 -9 -47 14 -40 39 -51 63 -29 25 23 27
58 5 80 -21 21 -37 20 -59 -4z"/>
<path d="M3579 2418 c-32 -45 -73 -118 -65 -118 10 0 116 135 116 147 0 25
-20 13 -51 -29z"/>
<path d="M4080 2383 c-44 -69 -66 -115 -42 -87 53 58 112 138 112 150 0 31
-23 10 -70 -63z"/>
<path d="M2185 3005 c-52 -52 -92 -128 -70 -133 41 -9 121 97 113 150 -3 22
-5 21 -43 -17z"/>
<path d="M2559 2428 c-17 -24 -40 -61 -51 -83 l-21 -40 59 55 c69 64 74 70 74
93 0 30 -29 18 -61 -25z"/>
<path d="M3082 2453 c-28 -14 -82 -69 -82 -85 0 -2 35 1 78 8 42 7 91 13 108
13 31 1 31 1 24 -40 -8 -43 -22 -59 -53 -59 -20 0 -56 -69 -57 -106 0 -21 17
-34 45 -34 24 0 72 49 95 97 69 147 -26 271 -158 206z"/>
<path d="M2583 2259 c-88 -96 -93 -114 -25 -106 26 3 59 10 75 16 24 9 27 16
27 53 0 24 3 60 6 81 4 20 3 37 -2 36 -5 0 -42 -36 -81 -80z"/>
</g>
</svg>
